<svg width="250" height="31" viewBox="0 0 250 31" fill="none" xmlns="http://www.w3.org/2000/svg">
<path fill-rule="evenodd" clip-rule="evenodd" d="M31.7317 26.1981C30.4032 24.779 29.3769 23.1484 28.6535 21.3098L28.6525 21.3073C27.9284 19.4366 27.5677 17.4481 27.5677 15.3458C27.5677 13.2152 27.9281 11.2256 28.6535 9.38176C29.3769 7.54314 30.4032 5.91255 31.7317 4.49346L31.7354 4.48949C33.0981 3.06625 34.7176 1.9622 36.5888 1.1775C38.4667 0.390013 40.5333 0 42.782 0C45.0308 0 47.0974 0.390013 48.9752 1.1775C50.8464 1.9622 52.4522 3.06666 53.7865 4.49135C55.1447 5.91037 56.1865 7.54161 56.9105 9.38176C57.6359 11.2256 57.9963 13.2152 57.9963 15.3458C57.9963 17.4481 57.6356 19.4366 56.9115 21.3073L56.9105 21.3098C56.1865 23.1499 55.1447 24.7812 53.7865 26.2002C52.4522 27.6249 50.8464 28.7294 48.9752 29.5141C47.0974 30.3015 45.0308 30.6916 42.782 30.6916C40.5333 30.6916 38.4667 30.3015 36.5888 29.5141C34.7176 28.7294 33.0981 27.6253 31.7354 26.2021L31.7317 26.1981ZM48.6177 5.67839C47.0134 4.6826 45.0753 4.1737 42.782 4.1737C40.5195 4.1737 38.5794 4.68195 36.9431 5.68034L36.938 5.6835C35.2908 6.66065 34.0247 7.98239 33.132 9.65498C32.2667 11.3311 31.8291 13.2245 31.8291 15.3458C31.8291 17.436 32.2659 19.3305 33.1328 21.038C34.0256 22.7103 35.2922 24.0471 36.9406 25.0535C38.5771 26.0236 40.5183 26.5179 42.782 26.5179C45.0771 26.5179 47.0167 26.0227 48.6216 25.0546C50.271 24.048 51.5229 22.7113 52.3867 21.0394L52.388 21.0367C53.2838 19.3292 53.7349 17.4353 53.7349 15.3458C53.7349 13.2258 53.2833 11.3334 52.3896 9.65775L52.3866 9.65214C51.5234 7.98129 50.2729 6.66041 48.6261 5.68347L48.6177 5.67839ZM70.9265 0.350647V26.211H86.7495V30.3409H66.6651V0.350647H70.9265ZM98.691 30.3409V18.5227L86.0614 0.350647H91.236L100.8 14.0985L110.363 0.350647H115.536L102.952 18.5223V30.3409H98.691ZM126.716 0.350647L136.858 13.7878L146.829 0.350647H151.374V30.3409H147.113V7.25384L136.865 20.4305L126.435 7.23587V30.3409H122.173V0.350647H126.716ZM161.869 0.350647H184.189V4.48052H166.131V13.237H182.261V17.4107H166.131V26.211H184.189V30.3409H161.869V0.350647ZM196.634 29.513L196.628 29.5103C194.776 28.6906 193.352 27.5543 192.386 26.0896L192.382 26.0835C191.461 24.6395 190.926 23.0141 190.773 21.2164L190.729 20.6883H195.135L195.164 21.1449C195.245 22.4491 195.675 23.4725 196.428 24.253C197.207 25.0311 198.24 25.6217 199.549 26.0117C200.901 26.406 202.388 26.6055 204.014 26.6055C206.418 26.6055 208.263 26.1896 209.592 25.404C210.876 24.617 211.504 23.4902 211.504 21.9643C211.504 21.0736 211.193 20.3964 210.582 19.8827L210.566 19.8691C209.927 19.284 209.043 18.7869 207.889 18.3927L207.885 18.3915C206.736 17.9892 205.468 17.6288 204.08 17.3107L204.071 17.3086C202.666 16.9574 201.246 16.5914 199.812 16.211L199.81 16.2103C198.38 15.8231 197.051 15.3306 195.823 14.7315L195.818 14.7294C194.595 14.1176 193.588 13.3307 192.808 12.3642L192.797 12.3508C192.02 11.3139 191.648 10.0211 191.648 8.50812C191.648 5.99713 192.618 3.93002 194.543 2.34629L194.546 2.34386C196.51 0.75473 199.371 0 203.049 0C205.665 0 207.86 0.400385 209.611 1.22904C211.339 2.01798 212.659 3.07919 213.537 4.42659C214.43 5.75149 214.926 7.19236 215.019 8.74193L215.05 9.25812H210.726L210.675 8.82913C210.516 7.51183 209.863 6.3975 208.669 5.47465L208.663 5.47046C207.503 4.5473 205.661 4.04221 203.049 4.04221C201.439 4.04221 200.164 4.201 199.207 4.50194C198.228 4.80954 197.513 5.20312 197.029 5.66199C196.549 6.11505 196.233 6.57713 196.059 7.04423C195.898 7.55561 195.822 8.02818 195.822 8.46428C195.822 9.28998 196.114 9.94121 196.7 10.4576C197.373 10.9947 198.265 11.4651 199.39 11.8594C200.571 12.2335 201.87 12.58 203.287 12.8982C204.727 13.2214 206.152 13.5887 207.563 14C209.021 14.3872 210.352 14.8948 211.553 15.5249C212.807 16.1373 213.817 16.9414 214.57 17.9432C215.379 18.9815 215.765 20.291 215.765 21.8328C215.765 24.6656 214.677 26.8935 212.493 28.4531L212.489 28.4558C210.334 29.9647 207.418 30.6916 203.794 30.6916C200.894 30.6916 198.499 30.3077 196.634 29.513ZM224.269 0.350647H228.53V13.237H244.431V0.350647H248.693V30.3409H244.431V17.4107H228.53V30.3409H224.269V0.350647Z" fill="url(#paint0_linear_1077_12261)"/>
<path d="M10.1792 14.8061C12.455 14.8061 14.0417 14.3375 15.0162 13.4726C15.993 12.576 16.5023 11.2865 16.5023 9.55057C16.5023 7.76419 15.9818 6.22593 15.0181 5.36936C14.0439 4.50335 12.4566 4.03414 10.1792 4.03414H1.29487e-05V4.95415e-05H10.713C12.7414 4.95415e-05 14.5167 0.378268 16.0276 1.14825C17.5654 1.88719 18.7722 2.95354 19.6386 4.34585C20.513 5.75126 20.9367 7.66815 20.9367 9.55057C20.9367 11.443 20.5088 13.0958 19.6386 14.4944C18.7723 15.8866 17.5659 16.9673 16.0288 17.7358L16.0263 17.7371C14.5158 18.4769 12.7411 18.8402 10.713 18.8402H4.25651V30.3161H1.29487e-05V14.8061H10.1792Z" fill="url(#paint1_linear_1077_12261)"/>
<defs>
<linearGradient id="paint0_linear_1077_12261" x1="107.44" y1="-0.58314" x2="107.338" y2="57.8422" gradientUnits="userSpaceOnUse">
<stop stop-color="#FF2E72"/>
<stop offset="0.934908" stop-color="#4A125E"/>
</linearGradient>
<linearGradient id="paint1_linear_1077_12261" x1="123.085" y1="-0.58309" x2="122.97" y2="57.8422" gradientUnits="userSpaceOnUse">
<stop stop-color="#FF2E72"/>
<stop offset="0.934908" stop-color="#4A125E"/>
</linearGradient>
</defs>
</svg>
